<?xml version="1.0" encoding="utf-8"?>
<!-- Generator: Adobe Illustrator 24.0.3, SVG Export Plug-In . SVG Version: 6.00 Build 0)  -->
<svg version="1.1"
	 id="svg2" inkscape:export-filename="/home/raphael/Documents/WORK/EUX/Ecogex/linux-logo/img/cool-linux-logo.png" inkscape:export-xdpi="348.75" inkscape:export-ydpi="348.75" inkscape:version="0.91 r13725" sodipodi:docname="other-linux-logo.svg" xmlns:cc="http://creativecommons.org/ns#" xmlns:dc="http://purl.org/dc/elements/1.1/" xmlns:inkscape="http://www.inkscape.org/namespaces/inkscape" xmlns:rdf="http://www.w3.org/1999/02/22-rdf-syntax-ns#" xmlns:sodipodi="http://sodipodi.sourceforge.net/DTD/sodipodi-0.dtd" xmlns:svg="http://www.w3.org/2000/svg"
	 xmlns="http://www.w3.org/2000/svg" xmlns:xlink="http://www.w3.org/1999/xlink" x="0px" y="0px" viewBox="0 0 206.5 252.8"
	 style="enable-background:new 0 0 206.5 252.8;" xml:space="preserve">
<path d="M168.3,66.9c-0.6-6.3,3.4-24.1-10.9-43.9C144.4,4.9,124.9,0.7,105.9,0.1c-1,0-1.7,0-2.6,0c-0.8,0-1.8,0-2.6,0
	C81.5,0.7,62.1,4.9,49,23C34.7,42.8,38.7,60.6,38.1,66.9c-0.6,6.3-43.3,79.4-37.6,89.9c3.2,5.8,17.3-3.5,17.6,4.8
	s-13.8,91.2,84.4,91.2c0.3,0,0.5,0,0.7,0c0.3,0,0.5,0,0.7,0c98.2,0,84.1-82.9,84.4-91.2c0.3-8.3,14.4,1,17.6-4.8
	C211.6,146.4,168.9,73.2,168.3,66.9z M135.2,45.2c5.2,0,9.4,4.2,9.4,9.4c0,5.2-4.2,9.4-9.4,9.4s-9.4-4.2-9.4-9.4
	C125.8,49.4,130,45.2,135.2,45.2z M71.2,45.2c5.2,0,9.4,4.2,9.4,9.4c0,5.2-4.2,9.4-9.4,9.4c-5.2,0-9.4-4.2-9.4-9.4
	C61.8,49.4,66,45.2,71.2,45.2z M158.5,215.4c-4.9,8-16.4,21.8-52.7,22.3c-0.9,0-1.7,0-2.6,0c-0.9,0-1.7,0-2.6,0
	c-36.3-0.5-47.8-14.3-52.7-22.3c-15.9-25.9-1-70.3,10.1-99c4.4-11.4-4.2-26.9,6.2-28.5c0.3,0,0.7-0.1,1-0.1
	c9.7-0.3,27.9,13.7,36.2,16.4c0.9,0.2,1.2,0.4,1.8,0.4c0.6,0,1-0.2,1.8-0.4c8.6-2.9,27.8-17.7,37.2-16.3c10.3,1.6,1.8,17.1,6.2,28.5
	C159.5,145.1,174.4,189.6,158.5,215.4z"/>
</svg>
