<?xml version="1.0" encoding="utf-8"?>
<!-- Generator: Adobe Illustrator 24.2.0, SVG Export Plug-In . SVG Version: 6.00 Build 0)  -->
<svg version="1.1" xmlns="http://www.w3.org/2000/svg" xmlns:xlink="http://www.w3.org/1999/xlink" x="0px" y="0px"
	 viewBox="0 0 640 512" style="enable-background:new 0 0 640 512;" xml:space="preserve">
<g id="Layer_2">
</g>
<g id="Layer_1">
	<g>
		<path d="M608,288h-7.1H576h-48h-22h-42v-80c0-17.7,14.3-32,32-32s32,14.3,32,32v19.6h48V208c0-44.2-35.8-80-80-80
			c-44.2,0-80,35.8-80,80v80h-32c-17.7,0-32,14.3-32,32v160c0,17.7,14.3,32,32,32h224c17.7,0,32-14.3,32-32V320
			C640,302.3,625.7,288,608,288z M496,432c-17.7,0-32-14.3-32-32c0-17.7,14.3-32,32-32s32,14.3,32,32C528,417.7,513.7,432,496,432z"
			/>
		<circle cx="224" cy="128" r="128"/>
		<path d="M320,320c0.1-10.7,2.9-21.2,8.1-30.5c-4.8-0.5-9.5-1.5-14.5-1.5h-16.7c-46.3,21.3-99.5,21.3-145.8,0h-16.7
			C60.2,288,0,348.2,0,422.4V464c0,26.5,21.5,48,48,48h280.9c-5.8-9.7-8.8-20.7-8.9-32V320z"/>
	</g>
</g>
</svg>
